<svg width="396" height="214" viewBox="0 0 396 214" fill="none" xmlns="http://www.w3.org/2000/svg">
<g opacity="0.14" clip-path="url(#clip0_45_603)">
<mask id="mask0_45_603" style="mask-type:luminance" maskUnits="userSpaceOnUse" x="-22" y="-3" width="407" height="245">
<path d="M385 -2.81912H-22V241.181H385V-2.81912Z" fill="white"/>
</mask>
<g mask="url(#mask0_45_603)">
<path d="M193.91 141.046H416.906" stroke="#4B8BFF" stroke-width="0.619435" stroke-miterlimit="10"/>
<path d="M193.91 190.6H416.906" stroke="#4B8BFF" stroke-width="0.619435" stroke-miterlimit="10"/>
<path d="M193.91 165.823H416.906" stroke="#4B8BFF" stroke-width="0.619435" stroke-miterlimit="10"/>
<path d="M193.91 116.268H416.906" stroke="#4B8BFF" stroke-width="0.619435" stroke-miterlimit="10"/>
<path d="M193.91 116.305V243.871" stroke="#4B8BFF" stroke-width="0.619435" stroke-miterlimit="10"/>
<path d="M268.242 116.305V243.871" stroke="#4B8BFF" stroke-width="0.619435" stroke-miterlimit="10"/>
<path d="M342.574 116.305V243.871" stroke="#4B8BFF" stroke-width="0.619435" stroke-miterlimit="10"/>
<path d="M342.574 -3.90219V116.268" stroke="#4B8BFF" stroke-width="0.619435" stroke-miterlimit="10"/>
<path d="M159.841 148.169C159.841 113.103 131.276 84.677 96.0393 84.677C60.8028 84.677 32.2375 113.103 32.2375 148.169C32.2375 183.235 60.8028 211.661 96.0393 211.661C131.276 211.661 159.841 183.235 159.841 148.169Z" fill="#0084FF" stroke="white" stroke-width="0.495548" stroke-miterlimit="10"/>
<path d="M148.056 15.3716L104.877 31.7447C100.841 33.2751 98.81 37.7874 100.34 41.8232L116.713 85.0023C118.243 89.0386 122.756 91.0697 126.792 89.5391L169.971 73.1662C174.007 71.6356 176.038 67.1236 174.507 63.0874L158.134 19.9083C156.604 15.8723 152.092 13.8412 148.056 15.3716Z" fill="#0084FF" stroke="white" stroke-width="0.495548" stroke-miterlimit="10"/>
<path d="M378.662 28.5518C381.637 28.5518 384.049 26.14 384.049 23.1648C384.049 20.1897 381.637 17.7778 378.662 17.7778C375.687 17.7778 373.275 20.1897 373.275 23.1648C373.275 26.14 375.687 28.5518 378.662 28.5518Z" fill="#0084FF" stroke="white" stroke-width="0.495548" stroke-miterlimit="10"/>
<path d="M360.97 28.5518C363.945 28.5518 366.356 26.14 366.356 23.1648C366.356 20.1897 363.945 17.7778 360.97 17.7778C357.994 17.7778 355.582 20.1897 355.582 23.1648C355.582 26.14 357.994 28.5518 360.97 28.5518Z" fill="#0084FF" stroke="white" stroke-width="0.495548" stroke-miterlimit="10"/>
<path d="M323.148 136.294C323.16 134.215 325.205 132.449 327.474 133.153L376.288 148.486C378.009 149.023 378.679 150.743 378.266 152.185L376.467 163.942C376.221 165.473 375.181 166.758 373.74 167.317L366.252 170.222L356.943 173.832C356.317 174.078 355.826 174.548 355.547 175.151L349.221 189.053C347.623 191.959 343.443 191.936 341.868 189.02L323.529 149.872C322.97 148.688 322.713 147.38 322.757 146.072L323.148 136.294Z" fill="#0084FF" stroke="white" stroke-width="1.11498" stroke-miterlimit="10" stroke-linejoin="round"/>
<path d="M356.027 161.896L349.858 173.072C348.26 175.978 344.08 175.955 342.505 173.038L323.551 137.903C322.131 135.277 324.623 132.259 327.473 133.153L376.288 148.486C379.037 149.346 379.093 153.224 376.366 154.174L357.424 160.723C356.832 160.924 356.329 161.349 356.016 161.908L356.027 161.896Z" fill="#0084FF" stroke="white" stroke-width="1.11498" stroke-miterlimit="10" stroke-linejoin="round"/>
<path d="M355.892 174.602L356.876 160.98" stroke="white" stroke-width="0.619435" stroke-miterlimit="10" stroke-linejoin="round"/>
<path d="M349.232 189.041L351.165 170.624" stroke="white" stroke-width="0.619435" stroke-miterlimit="10" stroke-linejoin="round"/>
<path d="M341.879 189.008L341.443 171.206" stroke="white" stroke-width="0.619435" stroke-miterlimit="10" stroke-linejoin="round"/>
<path d="M350.688 86.0007L334.338 111.892C332.613 114.651 329.589 116.331 326.327 116.331H292.637C289.374 116.339 286.35 114.651 284.625 111.892L268.444 86.0007C266.525 82.9327 266.525 79.0507 268.435 75.9913L284.784 50.1004C286.517 47.3327 289.533 45.6526 292.787 45.6526H326.486C329.748 45.6526 332.773 47.3327 334.497 50.0827L350.679 75.9913C352.598 79.0507 352.598 82.9414 350.688 86.0007Z" fill="#0084FF" stroke="white" stroke-width="1.11498" stroke-miterlimit="10"/>
<path d="M328.227 55.2642C328.802 54.3534 329.757 54.2473 330.138 54.2473C330.527 54.2473 331.472 54.3446 332.047 55.2642L333.135 57.015V56.9796L345.992 77.556C347.301 79.6516 347.301 82.3579 345.992 84.4441L339.952 94.0559L331.879 106.842C331.305 107.753 330.421 107.859 330.067 107.851C329.704 107.851 328.811 107.753 328.236 106.834L314.292 84.5061C312.983 82.4192 312.974 79.7228 314.256 77.618L328.227 55.2642Z" fill="#0084FF" stroke="white" stroke-width="0.619435" stroke-miterlimit="10"/>
<path d="M125.161 152.54C125.071 150.177 125.702 147.795 127.002 145.711L205.171 20.6042C207.408 17.0227 211.323 14.8576 215.545 14.8576H259.19C263.412 14.8576 267.336 17.0317 269.574 20.6042L271.216 23.2384L271.802 24.1766L280.084 37.4198L290.539 54.1453C291.775 56.13 292.397 58.3762 292.397 60.6318C292.397 62.8779 291.775 65.1333 290.539 67.1179L224.828 172.27L214.039 189.537L214.002 189.6L212.379 192.216C210.142 195.789 206.217 197.962 201.995 197.962H158.341C154.119 197.962 150.195 195.779 147.958 192.216L136.69 174.182L127.002 158.666C125.828 156.79 125.206 154.679 125.161 152.54Z" fill="#0084FF" stroke="white" stroke-width="1.11498" stroke-linejoin="round"/>
<path d="M208.112 185.513C207.634 185.513 206.434 185.378 205.667 184.16L196.249 169.085L189.068 157.854L187.733 155.725C186.903 154.399 186.443 152.874 186.407 151.34C186.352 149.581 186.813 147.885 187.733 146.406L222.852 90.2034L261.96 27.5684C262.727 26.3415 263.936 26.2062 264.413 26.2062C264.892 26.2062 266.101 26.3415 266.868 27.5684L267.436 28.4796L284.829 55.9855C286.597 58.8182 286.597 62.4806 284.829 65.3133L210.584 184.097L210.547 184.16C209.781 185.378 208.59 185.513 208.103 185.513H208.112Z" fill="#0084FF" stroke="white" stroke-width="0.619435" stroke-miterlimit="10" stroke-linejoin="round"/>
</g>
</g>
<defs>
<clipPath id="clip0_45_603">
<rect width="396" height="213.953" fill="white"/>
</clipPath>
</defs>
</svg>
