<svg width="56" height="56" viewBox="0 0 56 56" fill="none" xmlns="http://www.w3.org/2000/svg">
<g clip-path="url(#clip0_42_75)">
<path d="M22.3253 7H12.25C10.8576 7 9.52226 7.55312 8.53769 8.53769C7.55312 9.52226 7 10.8576 7 12.25V22.3253C7 23.7183 7.553 25.0553 8.53767 26.0377L30.8933 48.3933C32.5243 50.0243 35.0467 50.428 36.9763 49.1633C41.8334 45.9822 45.9822 41.8334 49.1633 36.9763C50.428 35.0467 50.0243 32.5243 48.3933 30.8933L26.04 8.54C25.5524 8.05179 24.9733 7.66449 24.336 7.40025C23.6986 7.136 23.0153 6.99999 22.3253 7Z" stroke="#0084FF" stroke-width="1.5" stroke-linecap="round" stroke-linejoin="round"/>
<path d="M14 13C13.4477 13 13 13.4477 13 14V14.0187C13 14.571 13.4477 15.0187 14 15.0187H14.0187C14.571 15.0187 15.0187 14.571 15.0187 14.0187V14C15.0187 13.4477 14.571 13 14.0187 13H14Z" stroke="#42B72A" stroke-width="2" stroke-linecap="round" stroke-linejoin="round"/>
</g>
<defs>
<clipPath id="clip0_42_75">
<rect width="56" height="56" fill="white"/>
</clipPath>
</defs>
</svg>
