<svg width="56" height="56" viewBox="0 0 56 56" fill="none" xmlns="http://www.w3.org/2000/svg">
<g clip-path="url(#clip0_42_307)">
<path d="M36.75 36.75V42M19.25 26.25H19.2687V26.2687H19.25V26.25ZM19.25 31.5H19.2687V31.5187H19.25V31.5ZM19.25 36.75H19.2687V36.7687H19.25V36.75ZM19.25 42H19.2687V42.0187H19.25V42ZM25.0787 26.25H25.095V26.2687H25.0787V26.25ZM25.0787 31.5H25.095V31.5187H25.0787V31.5ZM25.0787 36.75H25.095V36.7687H25.0787V36.75ZM25.0787 42H25.095V42.0187H25.0787V42ZM30.9213 26.25H30.94V26.2687H30.9213V26.25ZM30.9213 31.5H30.94V31.5187H30.9213V31.5ZM30.9213 36.75H30.94V36.7687H30.9213V36.75ZM30.9213 42H30.94V42.0187H30.9213V42ZM36.75 26.25H36.7687V26.2687H36.75V26.25ZM36.75 31.5H36.7687V31.5187H36.75V31.5ZM28 5.25C23.5853 5.25 19.2313 5.50667 14.9497 6.00134C12.383 6.3 10.5 8.51667 10.5 11.0997V45.5C10.5 46.8924 11.0531 48.2277 12.0377 49.2123C13.0223 50.1969 14.3576 50.75 15.75 50.75H40.25C41.6424 50.75 42.9777 50.1969 43.9623 49.2123C44.9469 48.2277 45.5 46.8924 45.5 45.5V11.0997C45.5 8.51434 43.6193 6.3 41.0503 6.00134C36.7183 5.49969 32.361 5.24882 28 5.25Z" stroke="#0084FF" stroke-width="1.5" stroke-linecap="round" stroke-linejoin="round"/>
<path d="M19.25 14H36.75V19.25H19.25V14Z" stroke="#42B72A" stroke-width="1.5" stroke-linecap="round" stroke-linejoin="round"/>
</g>
<defs>
<clipPath id="clip0_42_307">
<rect width="56" height="56" fill="white"/>
</clipPath>
</defs>
</svg>
