<svg width="56" height="56" viewBox="0 0 56 56" fill="none" xmlns="http://www.w3.org/2000/svg">
<path d="M24.5 47.25H31.5M24.5 3.5V7H31.5V3.5H24.5Z" stroke="#42B72A" stroke-width="1.5" stroke-linecap="round" stroke-linejoin="round"/>
<path d="M24.5 3.5H19.25C17.8576 3.5 16.5223 4.05312 15.5377 5.03769C14.5531 6.02226 14 7.35761 14 8.75V47.25C14 48.6424 14.5531 49.9777 15.5377 50.9623C16.5223 51.9469 17.8576 52.5 19.25 52.5H36.75C38.1424 52.5 39.4777 51.9469 40.4623 50.9623C41.4469 49.9777 42 48.6424 42 47.25V8.75C42 7.35761 41.4469 6.02226 40.4623 5.03769C39.4777 4.05312 38.1424 3.5 36.75 3.5H31.5M24.5 3.5H31.5Z" stroke="#0084FF" stroke-width="1.5" stroke-linecap="round" stroke-linejoin="round"/>
</svg>
