<svg width="56" height="56" viewBox="0 0 56 56" fill="none" xmlns="http://www.w3.org/2000/svg">
<path d="M35 44.632C36.9903 45.2099 39.0526 45.5021 41.125 45.5C44.458 45.5048 47.7476 44.7449 50.7407 43.2787C50.8292 41.1873 50.2335 39.1241 49.0438 37.4018C47.8542 35.6794 46.1356 34.3919 44.1483 33.7342C42.1611 33.0765 40.0136 33.0846 38.0314 33.7573C36.0492 34.4299 34.3403 35.7304 33.1637 37.4617M35 44.632V44.625C35 42.028 34.3327 39.585 33.1637 37.4617M35 44.632V44.8793C30.5095 47.5839 25.3648 49.0089 20.1227 49C14.6837 49 9.59468 47.495 5.25002 44.8793L5.24768 44.625C5.24589 41.3221 6.34345 38.1125 8.36731 35.5023C10.3912 32.8921 13.2262 31.0297 16.4255 30.2087C19.6248 29.3878 23.0063 29.655 26.0369 30.9682C29.0675 32.2814 31.5749 34.566 33.1637 37.4617" stroke="#0084FF" stroke-width="1.5" stroke-linecap="round" stroke-linejoin="round"/>
<path d="M28 14.875C28 16.9636 27.1703 18.9666 25.6935 20.4435C24.2166 21.9203 22.2136 22.75 20.125 22.75C18.0364 22.75 16.0334 21.9203 14.5565 20.4435C13.0797 18.9666 12.25 16.9636 12.25 14.875C12.25 12.7864 13.0797 10.7834 14.5565 9.30653C16.0334 7.82969 18.0364 7 20.125 7C22.2136 7 24.2166 7.82969 25.6935 9.30653C27.1703 10.7834 28 12.7864 28 14.875ZM47.25 20.125C47.25 21.7495 46.6047 23.3074 45.456 24.456C44.3074 25.6047 42.7495 26.25 41.125 26.25C39.5005 26.25 37.9426 25.6047 36.794 24.456C35.6453 23.3074 35 21.7495 35 20.125C35 18.5005 35.6453 16.9426 36.794 15.794C37.9426 14.6453 39.5005 14 41.125 14C42.7495 14 44.3074 14.6453 45.456 15.794C46.6047 16.9426 47.25 18.5005 47.25 20.125Z" stroke="#42B72A" stroke-width="1.5" stroke-linecap="round" stroke-linejoin="round"/>
</svg>
