<svg width="56" height="56" viewBox="0 0 56 56" fill="none" xmlns="http://www.w3.org/2000/svg">
<path d="M14 24.5H19.25C20.6424 24.5 21.9777 23.9469 22.9623 22.9623C23.9469 21.9777 24.5 20.6424 24.5 19.25V14C24.5 12.6076 23.9469 11.2723 22.9623 10.2877C21.9777 9.30312 20.6424 8.75 19.25 8.75H14C12.6076 8.75 11.2723 9.30312 10.2877 10.2877C9.30312 11.2723 8.75 12.6076 8.75 14V19.25C8.75 20.6424 9.30312 21.9777 10.2877 22.9623C11.2723 23.9469 12.6076 24.5 14 24.5ZM14 47.25H19.25C20.6424 47.25 21.9777 46.6969 22.9623 45.7123C23.9469 44.7277 24.5 43.3924 24.5 42V36.75C24.5 35.3576 23.9469 34.0223 22.9623 33.0377C21.9777 32.0531 20.6424 31.5 19.25 31.5H14C12.6076 31.5 11.2723 32.0531 10.2877 33.0377C9.30312 34.0223 8.75 35.3576 8.75 36.75V42C8.75 43.3924 9.30312 44.7277 10.2877 45.7123C11.2723 46.6969 12.6076 47.25 14 47.25ZM36.75 24.5H42C43.3924 24.5 44.7277 23.9469 45.7123 22.9623C46.6969 21.9777 47.25 20.6424 47.25 19.25V14C47.25 12.6076 46.6969 11.2723 45.7123 10.2877C44.7277 9.30312 43.3924 8.75 42 8.75H36.75C35.3576 8.75 34.0223 9.30312 33.0377 10.2877C32.0531 11.2723 31.5 12.6076 31.5 14V19.25C31.5 20.6424 32.0531 21.9777 33.0377 22.9623C34.0223 23.9469 35.3576 24.5 36.75 24.5Z" stroke="#0084FF" stroke-width="1.5" stroke-linecap="round" stroke-linejoin="round"/>
<path d="M37.343 30.94C37.433 30.398 37.903 30 38.453 30H39.546C40.096 30 40.566 30.398 40.656 30.94L40.805 31.834C40.875 32.258 41.189 32.598 41.585 32.764C41.983 32.928 42.44 32.906 42.79 32.656L43.527 32.129C43.7438 31.9741 44.0085 31.9011 44.274 31.923C44.5396 31.945 44.7887 32.0605 44.977 32.249L45.75 33.023C46.14 33.412 46.19 34.025 45.87 34.473L45.343 35.21C45.093 35.56 45.071 36.016 45.236 36.414C45.401 36.811 45.741 37.124 46.166 37.194L47.059 37.344C47.602 37.434 47.999 37.903 47.999 38.453V39.547C47.999 40.097 47.602 40.567 47.059 40.657L46.165 40.806C45.741 40.876 45.401 41.189 45.236 41.586C45.071 41.984 45.093 42.44 45.343 42.79L45.87 43.528C46.19 43.975 46.139 44.588 45.75 44.978L44.976 45.751C44.7877 45.9392 44.5388 46.0546 44.2735 46.0765C44.0082 46.0985 43.7437 46.0257 43.527 45.871L42.789 45.344C42.439 45.094 41.983 45.072 41.586 45.237C41.188 45.402 40.876 45.742 40.805 46.166L40.656 47.06C40.566 47.602 40.096 48 39.546 48H38.452C37.902 48 37.433 47.602 37.342 47.06L37.194 46.166C37.123 45.742 36.81 45.402 36.413 45.236C36.015 45.072 35.559 45.094 35.209 45.344L34.471 45.871C34.024 46.191 33.411 46.14 33.021 45.751L32.248 44.977C32.0596 44.7887 31.944 44.5395 31.9221 44.274C31.9001 44.0085 31.9731 43.7438 32.128 43.527L32.655 42.79C32.905 42.44 32.927 41.984 32.763 41.586C32.598 41.189 32.257 40.876 31.833 40.806L30.939 40.656C30.397 40.566 29.999 40.096 29.999 39.547V38.453C29.999 37.903 30.397 37.433 30.939 37.343L31.833 37.194C32.257 37.124 32.598 36.811 32.763 36.414C32.928 36.016 32.906 35.56 32.655 35.21L32.129 34.472C31.9741 34.2552 31.9011 33.9905 31.9231 33.725C31.945 33.4595 32.0606 33.2103 32.249 33.022L33.022 32.249C33.2104 32.0605 33.4595 31.945 33.725 31.923C33.9905 31.9011 34.2553 31.9741 34.472 32.129L35.209 32.656C35.559 32.906 36.016 32.928 36.413 32.763C36.81 32.598 37.123 32.258 37.193 31.834L37.343 30.94Z" stroke="#42B72A" stroke-linecap="round" stroke-linejoin="round"/>
<path d="M42 39C42 39.7956 41.6839 40.5587 41.1213 41.1213C40.5587 41.6839 39.7956 42 39 42C38.2044 42 37.4413 41.6839 36.8787 41.1213C36.3161 40.5587 36 39.7956 36 39C36 38.2044 36.3161 37.4413 36.8787 36.8787C37.4413 36.3161 38.2044 36 39 36C39.7956 36 40.5587 36.3161 41.1213 36.8787C41.6839 37.4413 42 38.2044 42 39Z" stroke="#42B72A" stroke-linecap="round" stroke-linejoin="round"/>
</svg>
