<svg width="56" height="56" viewBox="0 0 56 56" fill="none" xmlns="http://www.w3.org/2000/svg">
<path d="M39.8044 36.2157C40.8959 35.4703 42.1762 35.0492 43.497 35.001C44.8179 34.9529 46.1254 35.2797 47.2683 35.9436C48.4112 36.6076 49.3427 37.5816 49.9552 38.7529C50.5676 39.9242 50.8359 41.2449 50.729 42.5623C47.9295 43.5408 44.9558 43.9215 42 43.68C41.991 41.0355 41.2294 38.4458 39.8044 36.218C38.5395 34.2342 36.7947 32.6014 34.7313 31.4708C32.668 30.3403 30.3528 29.7484 28 29.75C25.6477 29.7488 23.333 30.3409 21.2701 31.4714C19.2072 32.602 17.4627 34.2345 16.198 36.218M41.9977 43.6777L42 43.75C42 44.275 41.972 44.793 41.9137 45.304C37.6796 47.7333 32.8816 49.0078 28 49C22.9367 49 18.1837 47.656 14.0864 45.304C14.0264 44.764 13.9976 44.221 14 43.6777M14 43.6777C11.0452 43.928 8.07317 43.5486 5.27571 42.5647C5.1692 41.2476 5.43763 39.9273 6.04998 38.7564C6.66233 37.5855 7.59357 36.6119 8.73605 35.948C9.87853 35.2841 11.1856 34.9572 12.5061 35.005C13.8265 35.0528 15.1065 35.4733 16.198 36.218M14 43.6777C14.0084 41.0333 14.7738 38.446 16.198 36.218M35 15.75C35 17.6065 34.2625 19.387 32.9498 20.6997C31.637 22.0125 29.8566 22.75 28 22.75C26.1435 22.75 24.3631 22.0125 23.0503 20.6997C21.7375 19.387 21 17.6065 21 15.75C21 13.8935 21.7375 12.113 23.0503 10.8003C24.3631 9.4875 26.1435 8.75 28 8.75C29.8566 8.75 31.637 9.4875 32.9498 10.8003C34.2625 12.113 35 13.8935 35 15.75Z" stroke="#0084FF" stroke-width="1.5" stroke-linecap="round" stroke-linejoin="round"/>
<path d="M49 22.75C49 23.4394 48.8642 24.1221 48.6004 24.7591C48.3365 25.396 47.9498 25.9748 47.4623 26.4623C46.9748 26.9498 46.396 27.3365 45.7591 27.6004C45.1221 27.8642 44.4394 28 43.75 28C43.0606 28 42.3779 27.8642 41.7409 27.6004C41.1039 27.3365 40.5252 26.9498 40.0377 26.4623C39.5502 25.9748 39.1635 25.396 38.8996 24.7591C38.6358 24.1221 38.5 23.4394 38.5 22.75C38.5 21.3576 39.0531 20.0223 40.0377 19.0377C41.0223 18.0531 42.3576 17.5 43.75 17.5C45.1424 17.5 46.4777 18.0531 47.4623 19.0377C48.4469 20.0223 49 21.3576 49 22.75ZM17.5 22.75C17.5 23.4394 17.3642 24.1221 17.1004 24.7591C16.8365 25.396 16.4498 25.9748 15.9623 26.4623C15.4748 26.9498 14.896 27.3365 14.2591 27.6004C13.6221 27.8642 12.9394 28 12.25 28C11.5606 28 10.8779 27.8642 10.2409 27.6004C9.60395 27.3365 9.0252 26.9498 8.53769 26.4623C8.05018 25.9748 7.66347 25.396 7.39963 24.7591C7.1358 24.1221 7 23.4394 7 22.75C7 21.3576 7.55312 20.0223 8.53769 19.0377C9.52226 18.0531 10.8576 17.5 12.25 17.5C13.6424 17.5 14.9777 18.0531 15.9623 19.0377C16.9469 20.0223 17.5 21.3576 17.5 22.75Z" stroke="#42B72A" stroke-width="1.5" stroke-linecap="round" stroke-linejoin="round"/>
</svg>
