<svg width="56" height="56" viewBox="0 0 56 56" fill="none" xmlns="http://www.w3.org/2000/svg">
<path d="M10.5 28C10.5 32.6413 12.3437 37.0925 15.6256 40.3744C18.9075 43.6563 23.3587 45.5 28 45.5C32.6413 45.5 37.0925 43.6563 40.3744 40.3744C43.6563 37.0925 45.5 32.6413 45.5 28M10.5 28C10.5 23.3587 12.3437 18.9076 15.6256 15.6257C18.9075 12.3438 23.3587 10.5 28 10.5C32.6413 10.5 37.0925 12.3438 40.3744 15.6257C43.6563 18.9076 45.5 23.3587 45.5 28M10.5 28H7M45.5 28H49M8.267 35.1797L11.557 33.9827M44.4453 22.0127L47.7353 20.8157M11.914 41.4984L14.5973 39.249M41.4073 16.751L44.0883 14.5017M17.5023 46.1884L19.2523 43.155M36.7523 12.845L38.5023 9.8117M24.3553 48.6804L24.962 45.234M31.0403 10.766L31.647 7.3197M31.647 48.6804L31.0403 45.234M24.962 10.766L24.3553 7.3197M38.5 46.186L36.75 43.155M44.086 41.4984L41.405 39.249M14.5973 16.7487L11.914 14.4994M47.7353 35.182L44.4453 33.985M11.5593 22.015L8.26933 20.8157" stroke="#0084FF" stroke-width="1.5" stroke-linecap="round" stroke-linejoin="round"/>
<path d="M49 28H45.5H28L17.5 9.81165M17.5023 46.1883L19.2523 43.155L28.0047 28" stroke="#42B72A" stroke-width="1.5" stroke-linecap="round" stroke-linejoin="round"/>
</svg>
