<svg width="56" height="56" viewBox="0 0 56 56" fill="none" xmlns="http://www.w3.org/2000/svg">
<path d="M49 17.5L43.75 14.4363M49 17.5V22.75M49 17.5L43.75 20.5637M7 17.5L12.25 14.4363M7 17.5L12.25 20.5637M7 17.5V22.75M28 50.75L33.25 47.6863M28 50.75V45.5M28 50.75L22.75 47.6863M22.75 8.31133L28 5.25L33.25 8.31367M49 33.25V38.5L43.75 41.5637M12.25 41.5637L7 38.5V33.25" stroke="#0084FF" stroke-width="1.5" stroke-linecap="round" stroke-linejoin="round"/>
<path d="M28 29.7499L33.25 26.6863M28 29.7499L22.75 26.6863M28 29.7499V34.9999" stroke="#42B72A" stroke-width="1.5" stroke-linecap="round" stroke-linejoin="round"/>
</svg>
