<svg width="56" height="56" viewBox="0 0 56 56" fill="none" xmlns="http://www.w3.org/2000/svg">
<path d="M14 24.5H19.25C20.6424 24.5 21.9777 23.9469 22.9623 22.9623C23.9469 21.9777 24.5 20.6424 24.5 19.25V14C24.5 12.6076 23.9469 11.2723 22.9623 10.2877C21.9777 9.30312 20.6424 8.75 19.25 8.75H14C12.6076 8.75 11.2723 9.30312 10.2877 10.2877C9.30312 11.2723 8.75 12.6076 8.75 14V19.25C8.75 20.6424 9.30312 21.9777 10.2877 22.9623C11.2723 23.9469 12.6076 24.5 14 24.5ZM14 47.25H19.25C20.6424 47.25 21.9777 46.6969 22.9623 45.7123C23.9469 44.7277 24.5 43.3924 24.5 42V36.75C24.5 35.3576 23.9469 34.0223 22.9623 33.0377C21.9777 32.0531 20.6424 31.5 19.25 31.5H14C12.6076 31.5 11.2723 32.0531 10.2877 33.0377C9.30312 34.0223 8.75 35.3576 8.75 36.75V42C8.75 43.3924 9.30312 44.7277 10.2877 45.7123C11.2723 46.6969 12.6076 47.25 14 47.25ZM36.75 24.5H42C43.3924 24.5 44.7277 23.9469 45.7123 22.9623C46.6969 21.9777 47.25 20.6424 47.25 19.25V14C47.25 12.6076 46.6969 11.2723 45.7123 10.2877C44.7277 9.30312 43.3924 8.75 42 8.75H36.75C35.3576 8.75 34.0223 9.30312 33.0377 10.2877C32.0531 11.2723 31.5 12.6076 31.5 14V19.25C31.5 20.6424 32.0531 21.9777 33.0377 22.9623C34.0223 23.9469 35.3576 24.5 36.75 24.5Z" stroke="#0084FF" stroke-width="1.5" stroke-linecap="round" stroke-linejoin="round"/>
<path d="M31.5 39.375H39.375M39.375 39.375H47.25M39.375 39.375V31.5M39.375 39.375V47.25" stroke="#42B72A" stroke-width="1.5" stroke-linecap="round" stroke-linejoin="round"/>
</svg>
